# xmcd
#
# Track frame offsets:
#	150
#	13550
#	27710
#
# Disc length: 588 seconds
#
# Revision: 2
# Processed by: cddbd v1.5.2PL0 Copyright (c) Steve Scherf et al.
# Submitted via: audiograbber 1.83.01
#
DISCID=1d024a03
DTITLE=Die Zillertaler - Wenn du bei mir bist
DYEAR=2004
DGENRE=Volksmusik
TTITLE0=Wenn du bei mir bist
TTITLE1=Boarisch Medley
TTITLE2=A Guates Land, a guate Zeit
EXTD=<http://www.hit-radio24.de> \n
EXTT0=
EXTT1=
EXTT2=
PLAYORDER=
